<svg width="212" height="40" viewBox="0 0 212 40" fill="none" xmlns="http://www.w3.org/2000/svg">
<g clip-path="url(#clip0_1_5880)">
<path d="M65.3353 12.3311L69.675 21.7336L74.095 12.3311H81.3278L71.7644 30.5737H67.4248L58.0222 12.3311H65.3353Z" fill="#222D39"></path>
<path d="M83.0967 5.33973C83.0967 4.85755 83.177 4.37537 83.4181 3.89318C83.82 3.00918 84.4629 2.28591 85.3469 1.96445C86.2309 1.56263 87.2756 1.56263 88.1596 1.96445C89.0436 2.36627 89.6865 3.00918 90.0883 3.89318C90.4902 4.77719 90.4902 5.82192 90.0883 6.70592C89.6865 7.58992 89.0436 8.23284 88.1596 8.63465C87.2756 9.03647 86.2309 9.03647 85.3469 8.63465C84.4629 8.23284 83.7396 7.58992 83.4181 6.70592C83.177 6.3041 83.0967 5.82192 83.0967 5.33973ZM89.9276 12.3314V30.574H83.4985V12.3314H89.9276Z" fill="#222D39"></path>
<path d="M108.491 12.3312H115.001V30.5738H108.491V28.5647C107.125 30.3327 105.277 31.1364 102.866 31.1364C101.58 31.1364 100.375 30.8953 99.1691 30.4131C98.044 29.9309 97.0797 29.2076 96.276 28.3236C95.392 27.4396 94.7491 26.3949 94.3473 25.1894C93.8651 23.984 93.624 22.6178 93.624 21.332C93.624 20.0461 93.8651 18.7603 94.3473 17.6352C94.7491 16.5101 95.392 15.4654 96.1957 14.5814C96.9993 13.6974 97.9637 12.9741 99.0888 12.4919C100.214 12.0097 101.5 11.6883 102.786 11.7687C104.955 11.6883 106.964 12.5723 108.411 14.1796L108.491 12.3312ZM100.375 21.4123C100.375 22.5374 100.776 23.5822 101.58 24.3858C101.982 24.7876 102.384 25.0287 102.866 25.2698C103.428 25.5109 103.991 25.5912 104.554 25.5912C105.116 25.5912 105.679 25.5109 106.161 25.2698C106.643 25.0287 107.125 24.7876 107.447 24.3858C107.848 23.984 108.09 23.5822 108.331 23.1C108.572 22.6178 108.652 22.0552 108.652 21.4927C108.652 20.9301 108.572 20.3676 108.331 19.8854C108.09 19.4032 107.848 18.921 107.447 18.5192C107.045 18.1174 106.643 17.7959 106.161 17.6352C105.679 17.3941 105.116 17.3138 104.554 17.3138C103.991 17.3138 103.428 17.3941 102.866 17.6352C102.384 17.7959 101.902 18.1174 101.58 18.5192C101.178 18.921 100.937 19.3229 100.696 19.805C100.455 20.2872 100.294 20.8498 100.375 21.4123Z" fill="#222D39"></path>
<path d="M125.769 1V30.5739H119.34V1H125.769Z" fill="#FBD400"></path>
<path d="M136.458 28.0824L127.618 12.3311H135.092L139.994 21.7336L144.736 12.3311H152.129L137.423 39.7351H130.19L136.458 28.0824Z" fill="#FBD400"></path>
<path d="M162.254 17.7153V30.5736H155.825V17.7153H153.655V12.331H155.825V6.86621H162.254V12.331H165.951V17.7153H162.254Z" fill="#FBD400"></path>
<path d="M168.362 5.33973C168.362 4.85755 168.443 4.37537 168.684 3.89318C169.086 3.00918 169.728 2.28591 170.612 1.96445C171.496 1.56263 172.541 1.56263 173.425 1.96445C174.309 2.36627 174.952 3.00918 175.354 3.89318C175.756 4.77719 175.756 5.82192 175.354 6.70592C174.952 7.58992 174.309 8.23284 173.425 8.63465C172.541 9.03647 171.496 9.03647 170.612 8.63465C169.728 8.23284 169.086 7.58992 168.684 6.70592C168.523 6.3041 168.362 5.82192 168.362 5.33973ZM175.274 12.3314V30.574H168.844V12.3314H175.274Z" fill="#FBD400"></path>
<path d="M193.517 18.1978C192.553 17.4746 191.347 17.0727 190.142 17.0727C189.579 17.0727 188.936 17.1531 188.454 17.3942C187.892 17.6353 187.409 17.8764 187.008 18.2782C186.606 18.68 186.284 19.1622 186.043 19.6444C185.802 20.2069 185.722 20.8498 185.722 21.4124C185.722 22.0553 185.802 22.6179 186.043 23.1804C186.284 23.7429 186.606 24.1448 187.008 24.5466C187.409 24.9484 187.892 25.2699 188.454 25.4306C189.017 25.6717 189.579 25.752 190.142 25.752C191.347 25.752 192.633 25.2699 193.517 24.4662V29.931C192.07 30.5739 190.544 30.9757 189.017 30.9757C187.731 30.9757 186.445 30.7346 185.24 30.2524C182.829 29.3684 180.9 27.6004 179.855 25.2699C179.293 24.0644 179.052 22.6982 179.052 21.332C179.052 19.9658 179.293 18.5997 179.855 17.3138C180.337 16.1084 181.061 15.0636 182.025 14.1796C182.909 13.2956 184.034 12.5724 185.24 12.1705C186.525 11.6884 187.892 11.4473 189.258 11.4473C190.785 11.4473 192.231 11.7687 193.597 12.4116V18.1978H193.517Z" fill="#FBD400"></path>
<path d="M209.268 16.9927C208.223 16.4302 207.018 16.1087 205.732 16.0283C205.25 16.0283 204.767 16.1087 204.285 16.3498C203.964 16.5105 203.723 16.9123 203.723 17.3142C203.723 17.4749 203.723 17.6356 203.803 17.7963C203.883 17.9571 204.044 18.1178 204.205 18.1982C204.446 18.3589 204.767 18.4392 205.089 18.5196C205.491 18.6 205.973 18.7607 206.616 18.8411C208.384 19.2429 209.75 19.8054 210.634 20.7698C211.518 21.7342 212 23.02 212 24.3058C212 25.2702 211.84 26.3149 211.357 27.1989C210.956 28.0829 210.313 28.8062 209.589 29.3687C208.786 30.0117 207.821 30.4135 206.857 30.7349C205.732 31.0564 204.526 31.2171 203.321 31.2171C200.749 31.2171 198.178 30.4938 196.008 29.1277L198.338 24.5469C200.106 25.7524 201.874 26.3953 203.482 26.3953C203.964 26.3953 204.526 26.3149 204.928 25.9935C205.25 25.7524 205.491 25.4309 205.491 25.0291C205.491 24.8684 205.491 24.6273 205.41 24.4665C205.33 24.3058 205.25 24.1451 205.089 24.0647C204.848 23.904 204.526 23.8236 204.285 23.7433C203.883 23.6629 203.401 23.5022 202.839 23.4218C200.83 23.02 199.463 22.4574 198.66 21.6538C197.856 20.8502 197.454 19.7251 197.454 18.3589C197.454 17.3945 197.615 16.4301 198.017 15.6265C198.419 14.8229 198.981 14.0996 199.624 13.537C200.428 12.8941 201.231 12.4923 202.196 12.2512C203.321 11.9298 204.446 11.769 205.571 11.769C207.58 11.769 209.589 12.1709 211.438 12.9745L209.268 16.9927Z" fill="#FBD400"></path>
<path d="M30.1365 33.387L22.5823 20.3681L15.0281 7.34912H0L15.0281 33.387H30.1365Z" fill="#222D39"></path>
<path d="M8.27808 9.03662L10.3675 12.5726H12.2963L10.2872 9.03662H8.27808Z" fill="white"></path>
<path d="M13.0183 17.1528L15.1078 20.6888H17.0365L15.0274 17.1528H13.0183Z" fill="white"></path>
<path d="M17.52 24.9482L19.5291 28.4039H21.4579L19.4488 24.9482H17.52Z" fill="white"></path>
<path d="M30.1358 7.34912L15.0273 33.387H30.1358L45.1638 7.34912H30.1358Z" fill="#FBD400"></path>
<path opacity="0.3" d="M21.2961 18.1172L13.7419 31.0558L15.0278 33.3863L22.582 20.3674L21.2961 18.1172Z" fill="#010102"></path>
</g>
<defs>
<clipPath id="clip0_1_5880">
<rect width="212" height="40" fill="white"></rect>
</clipPath>
</defs>
</svg>