<svg width="24" height="25" viewBox="0 0 24 25" fill="none" xmlns="http://www.w3.org/2000/svg">
<rect y="0.5" width="24" height="24" rx="4" fill="#E7CCF7"></rect>
<path d="M8.68413 16.2362L5.05178 14.9003C4.94498 14.8609 4.85282 14.7897 4.78773 14.6962C4.72264 14.6028 4.68774 14.4917 4.68774 14.3779C4.68774 14.264 4.72264 14.1529 4.78773 14.0595C4.85282 13.9661 4.94498 13.8949 5.05178 13.8554L8.68413 12.5195C8.75976 12.4918 8.82844 12.448 8.8854 12.391C8.94235 12.3341 8.9862 12.2654 9.01389 12.1897L10.3498 8.5574C10.3893 8.45059 10.4605 8.35844 10.5539 8.29335C10.6473 8.22826 10.7584 8.19336 10.8723 8.19336C10.9861 8.19336 11.0972 8.22826 11.1906 8.29335C11.284 8.35844 11.3553 8.45059 11.3947 8.5574L12.7306 12.1897C12.7583 12.2654 12.8022 12.3341 12.8591 12.391C12.9161 12.448 12.9847 12.4918 13.0604 12.5195L16.6927 13.8554C16.7995 13.8949 16.8917 13.9661 16.9568 14.0595C17.0219 14.1529 17.0568 14.264 17.0568 14.3779C17.0568 14.4917 17.0219 14.6028 16.9568 14.6962C16.8917 14.7897 16.7995 14.8609 16.6927 14.9003L13.0604 16.2362C12.9847 16.2639 12.9161 16.3078 12.8591 16.3647C12.8022 16.4217 12.7583 16.4904 12.7306 16.566L11.3947 20.1983C11.3553 20.3051 11.284 20.3973 11.1906 20.4624C11.0972 20.5275 10.9861 20.5624 10.8723 20.5624C10.7584 20.5624 10.6473 20.5275 10.5539 20.4624C10.4605 20.3973 10.3893 20.3051 10.3498 20.1983L9.01389 16.566C8.9862 16.4904 8.94235 16.4217 8.8854 16.3647C8.82844 16.3078 8.75976 16.2639 8.68413 16.2362Z" fill="#CE99EF" stroke="#500081" stroke-width="1.5" stroke-linejoin="round"></path>
<path d="M17.625 7.25V11.375" stroke="#500081" stroke-width="1.5" stroke-linecap="round" stroke-linejoin="round"></path>
<path d="M14.25 4.8125V7.0625" stroke="#500081" stroke-width="1.5" stroke-linecap="round" stroke-linejoin="round"></path>
<path d="M15.5625 9.3125H19.6875" stroke="#500081" stroke-width="1.5" stroke-linecap="round" stroke-linejoin="round"></path>
<path d="M13.125 5.9375H15.375" stroke="#500081" stroke-width="1.5" stroke-linecap="round" stroke-linejoin="round"></path>
</svg>